<?xml version="1.0" encoding="utf-8"?>
<!-- Generator: Adobe Illustrator 18.1.1, SVG Export Plug-In . SVG Version: 6.00 Build 0)  -->
<!DOCTYPE svg PUBLIC "-//W3C//DTD SVG 1.1//EN" "http://www.w3.org/Graphics/SVG/1.1/DTD/svg11.dtd">
<svg version="1.1" id="Layer_1" xmlns="http://www.w3.org/2000/svg" xmlns:xlink="http://www.w3.org/1999/xlink" x="0px" y="0px"
	 viewBox="0 0 64 88" style="enable-background:new 0 0 64 88;" xml:space="preserve">
<path d="M63,0H1C0.448,0,0,0.448,0,1v86c0,0.552,0.448,1,1,1h62c0.552,0,1-0.448,1-1V1C64,0.448,63.552,0,63,0z M46.162,51.154
	c-0.738-0.736-1.917-0.782-2.71-0.106L30.954,62.552L35.6,55.6L25.517,44.648c-0.809-0.878-2.202-0.857-2.984,0.046L10,59.173V10h44
	v48.177L46.162,51.154z M55.293,8H8.707l-6-6h58.586L55.293,8z M8,61.483v17.81l-6,6V2.707l6,6V61.483z M8.707,80h46.586l6,6H2.707
	L8.707,80z M56,59.969V8.707l6-6v82.586l-6-6V59.969z"/>
<circle cx="41.976" cy="30.024" r="5.976"/>
</svg>
