<?xml version="1.0" encoding="utf-8"?>
<!-- Generator: Adobe Illustrator 18.1.1, SVG Export Plug-In . SVG Version: 6.00 Build 0)  -->
<!DOCTYPE svg PUBLIC "-//W3C//DTD SVG 1.1//EN" "http://www.w3.org/Graphics/SVG/1.1/DTD/svg11.dtd">
<svg version="1.1" id="Layer_1" xmlns="http://www.w3.org/2000/svg" xmlns:xlink="http://www.w3.org/1999/xlink" x="0px" y="0px"
	 viewBox="0 0 64 88" style="enable-background:new 0 0 64 88;" xml:space="preserve">
<rect x="58.182" y="1.333" width="1.939" height="85.333"/>
<rect x="62.061" y="1.333" width="1.939" height="85.333"/>
<path d="M54.303,1.333H0.97C0.434,1.333,0,1.768,0,2.303v83.394c0,0.535,0.434,0.97,0.97,0.97h53.333c0.535,0,0.97-0.434,0.97-0.97
	V2.303C55.273,1.768,54.838,1.333,54.303,1.333z M53.333,84.727H1.939V3.273h51.394V84.727z"/>
<rect x="11.636" y="31.879" width="31.03" height="0.97"/>
<rect x="11.636" y="35.758" width="23.273" height="0.97"/>
<rect x="11.636" y="39.636" width="31.03" height="0.97"/>
<rect x="11.636" y="43.515" width="15.515" height="0.97"/>
<rect x="11.636" y="66.788" width="15.515" height="0.97"/>
<rect x="11.636" y="70.667" width="23.273" height="0.97"/>
<rect x="11.636" y="47.394" width="31.03" height="0.97"/>
<rect x="11.636" y="51.273" width="31.03" height="0.97"/>
<rect x="11.636" y="55.152" width="31.03" height="0.97"/>
<rect x="11.636" y="59.03" width="31.03" height="0.97"/>
<rect x="11.636" y="15.879" width="31.03" height="1.939"/>
</svg>
