<?xml version="1.0" encoding="utf-8"?>
<!-- Generator: Adobe Illustrator 18.1.1, SVG Export Plug-In . SVG Version: 6.00 Build 0)  -->
<!DOCTYPE svg PUBLIC "-//W3C//DTD SVG 1.1//EN" "http://www.w3.org/Graphics/SVG/1.1/DTD/svg11.dtd">
<svg version="1.1" id="Layer_1" xmlns="http://www.w3.org/2000/svg" xmlns:xlink="http://www.w3.org/1999/xlink" x="0px" y="0px"
	 viewBox="0 0 64 88" style="enable-background:new 0 0 64 88;" xml:space="preserve">
<path d="M63,0H1C0.448,0,0,0.448,0,1v86c0,0.552,0.448,1,1,1h62c0.552,0,1-0.448,1-1V1C64,0.448,63.552,0,63,0z M62,86H2V2h60V86z"
	/>
<path d="M32,12H8v16h24V12z M22.014,15.368c0.752,0.657,1.119,1.683,1.215,2.74c-0.605-0.305-1.528-0.943-1.528-2.038
	c0-0.03-0.01-0.057-0.017-0.085C21.833,15.75,21.941,15.538,22.014,15.368z M16.772,17.68c0.264-1.597,1.191-3.027,3.199-3.027
	c0.553,0,1.015,0.119,1.414,0.31C21.17,15.563,20.185,17.569,16.772,17.68z M16.695,18.424c2.212-0.05,3.56-0.836,4.36-1.651
	c0.354,1.269,1.606,1.922,2.18,2.159c-0.139,2.173-2.018,3.785-3.265,3.785c-1.294,0-3.291-1.732-3.291-4.033
	C16.68,18.598,16.692,18.511,16.695,18.424z M18.99,23.244c0.33,0.127,0.661,0.216,0.981,0.216c0.349,0,0.713-0.103,1.073-0.253
	c0.067,0.73,0.305,1.253,0.663,1.601c-0.333,0.256-0.836,0.424-1.445,0.466c-0.83,0.059-1.648-0.131-2.207-0.472
	C18.575,24.415,18.891,23.883,18.99,23.244z M17.333,25.19c0.618,0.518,1.589,0.837,2.623,0.837c0.119,0,0.238-0.004,0.357-0.012
	c0.876-0.061,1.572-0.345,2.025-0.789c0.593,0.273,1.288,0.341,1.901,0.341c1.22,0,2.01,0.432,2.597,1.434H13.059
	c0.393-0.978,0.95-1.456,2.274-1.456C16.111,25.544,16.778,25.415,17.333,25.19z M31,27h-3.325c-0.73-1.494-1.803-2.176-3.435-2.176
	c-1.792,0-2.491-0.559-2.491-1.993c0-0.003-0.001-0.005-0.002-0.007c1.227-0.831,2.257-2.391,2.257-4.139
	c0-0.011-0.002-0.021-0.002-0.033c0-0.003,0-0.005-0.001-0.008c-0.015-2.877-1.592-4.734-4.03-4.734
	c-2.45,0-4.033,1.874-4.033,4.775c0,1.791,1.08,3.384,2.346,4.198c-0.047,1.774-2.264,1.919-2.951,1.919
	c-1.83,0-2.582,0.832-3.066,2.198H9V13h22V27z"/>
<path d="M56,56H8v15v1v8h48V56z M9,57h46v12.361l-3.022-2.031c0.064-0.177,0.105-0.366,0.105-0.565c0-0.921-0.749-1.67-1.67-1.67
	c-0.508,0-0.958,0.233-1.265,0.592L46.5,64.384c0.028-0.121,0.046-0.246,0.046-0.375c0-0.921-0.749-1.67-1.67-1.67
	s-1.67,0.749-1.67,1.67c0,0.341,0.104,0.657,0.279,0.921l-3.527,4.106c-0.224-0.112-0.473-0.181-0.741-0.181
	c-0.491,0-0.928,0.217-1.234,0.555l-2.829-1.498c0.031-0.127,0.052-0.258,0.052-0.394c0-0.921-0.749-1.67-1.67-1.67
	c-0.87,0-1.578,0.67-1.655,1.52l-2.348,0.374C29.278,67.148,28.687,66.73,28,66.73c-0.496,0-0.938,0.222-1.244,0.567l-2.828-1.464
	c0.007-0.062,0.019-0.123,0.019-0.186c0-0.921-0.749-1.67-1.67-1.67s-1.67,0.749-1.67,1.67c0,0.346,0.106,0.668,0.287,0.935
	l-3.458,4.657c-0.196-0.081-0.411-0.127-0.636-0.127c-0.483,0-0.915,0.209-1.22,0.538l-2.839-1.552c0.06-0.173,0.1-0.355,0.1-0.548
	c0-0.921-0.749-1.67-1.67-1.67s-1.67,0.749-1.67,1.67c0,0.19,0.039,0.37,0.098,0.54L9,70.43V57z M50.413,65.838
	c0.512,0,0.928,0.415,0.928,0.928c0,0.512-0.415,0.928-0.928,0.928c-0.512,0-0.928-0.415-0.928-0.928
	C49.485,66.253,49.9,65.838,50.413,65.838z M43.949,64.008c0-0.512,0.415-0.928,0.928-0.928c0.512,0,0.928,0.415,0.928,0.928
	c0,0.512-0.415,0.928-0.928,0.928C44.364,64.936,43.949,64.521,43.949,64.008z M39.218,69.597c0.512,0,0.928,0.415,0.928,0.928
	c0,0.512-0.415,0.928-0.928,0.928c-0.512,0-0.928-0.415-0.928-0.928C38.29,70.013,38.705,69.597,39.218,69.597z M33.537,68.445
	c-0.512,0-0.928-0.415-0.928-0.928s0.415-0.928,0.928-0.928c0.512,0,0.928,0.415,0.928,0.928S34.049,68.445,33.537,68.445z
	 M28,67.472c0.512,0,0.928,0.415,0.928,0.928c0,0.512-0.415,0.928-0.928,0.928c-0.512,0-0.928-0.415-0.928-0.928
	C27.072,67.888,27.488,67.472,28,67.472z M21.349,65.647c0-0.512,0.415-0.928,0.928-0.928c0.512,0,0.928,0.415,0.928,0.928
	c0,0.512-0.415,0.928-0.928,0.928C21.765,66.575,21.349,66.159,21.349,65.647z M16.8,71.853c0.512,0,0.928,0.415,0.928,0.928
	c0,0.512-0.415,0.928-0.928,0.928c-0.512,0-0.928-0.415-0.928-0.928S16.288,71.853,16.8,71.853z M10.244,69.548
	c0-0.512,0.415-0.928,0.928-0.928c0.512,0,0.928,0.415,0.928,0.928c0,0.512-0.415,0.928-0.928,0.928
	C10.659,70.476,10.244,70.061,10.244,69.548z M9,79v-7.595l1.053-0.626c0.297,0.27,0.687,0.439,1.119,0.439
	c0.432,0,0.822-0.169,1.118-0.439l2.899,1.585c-0.035,0.134-0.059,0.271-0.059,0.416c0,0.921,0.749,1.67,1.67,1.67
	c0.921,0,1.67-0.749,1.67-1.67c0-0.4-0.147-0.762-0.382-1.05l3.422-4.609c0.231,0.121,0.489,0.195,0.767,0.195
	c0.564,0,1.062-0.283,1.364-0.713l2.736,1.416c-0.029,0.123-0.048,0.249-0.048,0.38c0,0.921,0.749,1.67,1.67,1.67
	c0.87,0,1.578-0.671,1.655-1.52l2.348-0.374c0.256,0.594,0.847,1.012,1.534,1.012c0.491,0,0.928-0.217,1.234-0.555l2.83,1.498
	c-0.031,0.127-0.052,0.258-0.052,0.395c0,0.921,0.749,1.67,1.67,1.67s1.67-0.749,1.67-1.67c0-0.358-0.115-0.688-0.308-0.96
	l3.514-4.091c0.234,0.126,0.498,0.204,0.782,0.204c0.498,0,0.941-0.224,1.248-0.571l2.658,1.307
	c-0.024,0.113-0.039,0.231-0.039,0.351c0,0.921,0.749,1.67,1.67,1.67c0.427,0,0.814-0.166,1.109-0.431L55,70.344V79H9z"/>
<rect x="8" y="35.5" width="48" height="1"/>
<rect x="8" y="39.5" width="48" height="1"/>
<rect x="8" y="43.5" width="48" height="1"/>
<rect x="8" y="47.5" width="20" height="1"/>
<rect x="36" y="15.5" width="20" height="1"/>
<rect x="36" y="19.5" width="16" height="1"/>
</svg>
