<?xml version="1.0" encoding="utf-8"?>
<!-- Generator: Adobe Illustrator 21.0.0, SVG Export Plug-In . SVG Version: 6.00 Build 0)  -->
<svg version="1.1" id="Layer_1" xmlns="http://www.w3.org/2000/svg" xmlns:xlink="http://www.w3.org/1999/xlink" x="0px" y="0px"
	 viewBox="0 0 35.999 36" style="enable-background:new 0 0 35.999 36;" xml:space="preserve">
<g>
	<g>
		<path d="M33.336,0H2.655C1.19,0,0,1.162,0,2.596v30.807C0,34.836,1.19,36,2.655,36h30.681c1.469,0,2.663-1.164,2.663-2.598V2.596
			C35.999,1.162,34.805,0,33.336,0z M10.679,30.676H5.335v-17.18h5.344V30.676z M8.008,11.149c-1.715,0-3.098-1.387-3.098-3.097
			c0-1.709,1.383-3.096,3.098-3.096c1.708,0,3.095,1.387,3.095,3.096C11.102,9.762,9.716,11.149,8.008,11.149z M30.677,30.676
			h-5.338v-8.354c0-1.992-0.035-4.555-2.775-4.555c-2.778,0-3.202,2.171-3.202,4.413v8.497h-5.333v-17.18h5.118v2.349h0.073
			c0.712-1.351,2.455-2.775,5.053-2.775c5.405,0,6.404,3.557,6.404,8.184V30.676z"/>
	</g>
</g>
</svg>
