<?xml version="1.0" encoding="utf-8"?>
<!-- Generator: Adobe Illustrator 18.1.1, SVG Export Plug-In . SVG Version: 6.00 Build 0)  -->
<!DOCTYPE svg PUBLIC "-//W3C//DTD SVG 1.1//EN" "http://www.w3.org/Graphics/SVG/1.1/DTD/svg11.dtd">
<svg version="1.1" id="Layer_1" xmlns="http://www.w3.org/2000/svg" xmlns:xlink="http://www.w3.org/1999/xlink" x="0px" y="0px"
	 viewBox="0 0 64 88" style="enable-background:new 0 0 64 88;" xml:space="preserve">
<g>
	<path d="M63,6H1C0.448,6,0,6.448,0,7v74c0,0.552,0.448,1,1,1h62c0.552,0,1-0.448,1-1V7C64,6.448,63.552,6,63,6z M62,80H2V8h60V80z"
		/>
</g>
<g>
	<path d="M51.844,69.752c-1.385-0.758-2.77-0.565-4.155-0.73c-1.385-0.111-2.77-0.257-4.154-0.17
		c-1.18,0.077-2.359,0.068-3.538,0.277c-1.252,0.228-2.5,0.004-3.748-0.14C35,68.851,33.753,68.8,32.504,69.557
		c-1.2,0.734-2.405,0.579-3.611,0.27c-1.206-0.303-2.413-0.755-3.615-0.442c-1.727,0.459-3.456-0.216-5.183-0.544
		c-1.216-0.226-2.432-0.616-3.649-0.652c-1.426-0.042-2.985-1.316-4.387,0.937c-0.077,0.124-0.08,1.118,0,1.221
		c1.345,1.717,2.798,0.529,4.159,0.503c1.182-0.021,2.364,0.266,3.546,0.456c1.754,0.282,3.505,0.077,5.258-0.26
		c2.496-0.442,4.987,1.486,7.481,0.645c3.217-1.019,6.442-0.994,9.668-0.995c1.613,0.006,3.226,0.014,4.838-0.044
		c0.806-0.029,1.612-0.072,2.418-0.134c0.806-0.067,1.611-0.249,2.416-0.439C52.052,69.992,52.052,69.931,51.844,69.752z"/>
</g>
<g>
	<circle cx="41.976" cy="28.024" r="5.976"/>
</g>
<g>
	<path d="M56,51.945V14H8v39.459V62h48V51.945z M10,16h44v34.153l-7.838-7.023c-0.738-0.736-1.917-0.782-2.71-0.106L30.954,54.528
		l4.646-6.952L25.517,36.624c-0.809-0.878-2.202-0.857-2.984,0.046L10,51.148V16z"/>
</g>
</svg>
