<?xml version="1.0" encoding="utf-8"?>
<!-- Generator: Adobe Illustrator 19.2.1, SVG Export Plug-In . SVG Version: 6.00 Build 0)  -->
<svg version="1.1" id="Layer_1" xmlns="http://www.w3.org/2000/svg" xmlns:xlink="http://www.w3.org/1999/xlink" x="0px" y="0px"
	 viewBox="0 0 319 182.1" style="enable-background:new 0 0 319 182.1;" xml:space="preserve">
<style type="text/css">
	.st0{clip-path:url(#SVGID_2_);fill:#FFFFFF;}
	.st1{clip-path:url(#SVGID_2_);fill:#FDFDFD;}
	.st2{clip-path:url(#SVGID_2_);fill:#FBFBFC;}
	.st3{clip-path:url(#SVGID_2_);fill:#FAFAFA;}
	.st4{clip-path:url(#SVGID_2_);fill:#F9F9F9;}
	.st5{clip-path:url(#SVGID_2_);fill:#F7F8F8;}
	.st6{clip-path:url(#SVGID_2_);fill:#F6F7F7;}
	.st7{clip-path:url(#SVGID_2_);fill:#F5F6F6;}
	.st8{clip-path:url(#SVGID_2_);fill:#F4F5F5;}
	.st9{clip-path:url(#SVGID_2_);fill:#F3F4F4;}
	.st10{fill:#DCDDDE;}
	.st11{clip-path:url(#SVGID_4_);fill:#FFFFFF;}
	.st12{clip-path:url(#SVGID_4_);fill:#FDFDFD;}
	.st13{clip-path:url(#SVGID_4_);fill:#FBFBFC;}
	.st14{clip-path:url(#SVGID_4_);fill:#FAFAFA;}
	.st15{clip-path:url(#SVGID_4_);fill:#F9F9F9;}
	.st16{clip-path:url(#SVGID_4_);fill:#F7F8F8;}
	.st17{clip-path:url(#SVGID_4_);fill:#F6F7F7;}
	.st18{clip-path:url(#SVGID_4_);fill:#F5F6F6;}
	.st19{clip-path:url(#SVGID_4_);fill:#F4F5F5;}
	.st20{clip-path:url(#SVGID_4_);fill:#F3F4F4;}
</style>
<g>
	<g>
		<defs>
			<path id="SVGID_1_" d="M300.9,180.6H18c-9.1,0-16.5-7.4-16.5-16.5V18C1.5,8.9,8.9,1.5,18,1.5h282.9c9.1,0,16.5,7.4,16.5,16.5v146
				C317.5,173.2,310.1,180.6,300.9,180.6z"/>
		</defs>
		<clipPath id="SVGID_2_">
			<use xlink:href="#SVGID_1_"  style="overflow:visible;"/>
		</clipPath>
		<polygon class="st0" points="1.5,170.9 11.2,180.6 1.5,180.6 		"/>
		<polygon class="st0" points="1.5,123.3 58.8,180.6 11.2,180.6 1.5,170.9 		"/>
		<polygon class="st1" points="1.5,75.8 106.3,180.6 58.8,180.6 1.5,123.3 		"/>
		<polygon class="st2" points="1.5,28.2 153.9,180.6 106.3,180.6 1.5,75.8 		"/>
		<polygon class="st3" points="1.5,6.1 6.1,1.5 22.4,1.5 201.5,180.6 153.9,180.6 1.5,28.2 		"/>
		<polygon class="st4" points="69.9,1.5 249,180.6 201.5,180.6 22.4,1.5 		"/>
		<polygon class="st5" points="117.5,1.5 296.6,180.6 249,180.6 69.9,1.5 		"/>
		<polygon class="st6" points="165.1,1.5 317.5,153.9 317.5,176 312.9,180.6 296.6,180.6 117.5,1.5 		"/>
		<polygon class="st7" points="212.6,1.5 317.5,106.3 317.5,153.9 165.1,1.5 		"/>
		<polygon class="st8" points="260.2,1.5 317.5,58.8 317.5,106.3 212.6,1.5 		"/>
		<polygon class="st9" points="307.8,1.5 317.5,11.2 317.5,58.8 260.2,1.5 		"/>
		<polygon class="st9" points="317.5,11.2 307.8,1.5 317.5,1.5 		"/>
	</g>
	<path class="st10" d="M300.9,182.1H18c-10,0-18-8.1-18-18V18C0,8.1,8.1,0,18,0h282.9c10,0,18,8.1,18,18v146
		C319,174,310.9,182.1,300.9,182.1z M18,3C9.8,3,3,9.8,3,18v146c0,8.3,6.8,15,15,15h282.9c8.3,0,15-6.8,15-15V18c0-8.3-6.8-15-15-15
		H18z"/>
</g>
<g>
	<rect x="29.5" y="72.6" class="st10" width="261" height="18"/>
</g>
<g>
	<rect x="83.8" y="108.6" class="st10" width="85.2" height="18"/>
</g>
<g>
	<rect x="29.8" y="18.6" class="st10" width="85.2" height="18"/>
</g>
<g>
	<rect x="29.5" y="144.6" class="st10" width="139.5" height="18"/>
</g>
<g>
	<rect x="227.5" y="131.1" class="st10" width="63" height="31.5"/>
</g>
</svg>
