<?xml version="1.0" encoding="utf-8"?>
<!-- Generator: Adobe Illustrator 19.2.1, SVG Export Plug-In . SVG Version: 6.00 Build 0)  -->
<svg version="1.1" id="Layer_1" xmlns="http://www.w3.org/2000/svg" xmlns:xlink="http://www.w3.org/1999/xlink" x="0px" y="0px"
	 viewBox="0 0 318 182.1" style="enable-background:new 0 0 318 182.1;" xml:space="preserve">
<style type="text/css">
	.st0{clip-path:url(#SVGID_2_);fill:#FFFFFF;}
	.st1{clip-path:url(#SVGID_2_);fill:#FDFDFD;}
	.st2{clip-path:url(#SVGID_2_);fill:#FBFBFC;}
	.st3{clip-path:url(#SVGID_2_);fill:#FAFAFA;}
	.st4{clip-path:url(#SVGID_2_);fill:#F9F9F9;}
	.st5{clip-path:url(#SVGID_2_);fill:#F7F8F8;}
	.st6{clip-path:url(#SVGID_2_);fill:#F6F7F7;}
	.st7{clip-path:url(#SVGID_2_);fill:#F5F6F6;}
	.st8{clip-path:url(#SVGID_2_);fill:#F4F5F5;}
	.st9{clip-path:url(#SVGID_2_);fill:#F3F4F4;}
	.st10{fill:#DCDDDE;}
	.st11{clip-path:url(#SVGID_4_);fill:#FFFFFF;}
	.st12{clip-path:url(#SVGID_4_);fill:#FDFDFD;}
	.st13{clip-path:url(#SVGID_4_);fill:#FBFBFC;}
	.st14{clip-path:url(#SVGID_4_);fill:#FAFAFA;}
	.st15{clip-path:url(#SVGID_4_);fill:#F9F9F9;}
	.st16{clip-path:url(#SVGID_4_);fill:#F7F8F8;}
	.st17{clip-path:url(#SVGID_4_);fill:#F6F7F7;}
	.st18{clip-path:url(#SVGID_4_);fill:#F5F6F6;}
	.st19{clip-path:url(#SVGID_4_);fill:#F4F5F5;}
	.st20{clip-path:url(#SVGID_4_);fill:#F3F4F4;}
</style>
<g>
	<g>
		<defs>
			<path id="SVGID_3_" d="M300,180.6H18c-9.1,0-16.5-7.4-16.5-16.5V18C1.5,8.9,8.9,1.5,18,1.5H300c9.1,0,16.5,7.4,16.5,16.5v146
				C316.5,173.2,309.1,180.6,300,180.6z"/>
		</defs>
		<clipPath id="SVGID_2_">
			<use xlink:href="#SVGID_3_"  style="overflow:visible;"/>
		</clipPath>
		<rect x="1.5" y="1.5" class="st0" width="31.5" height="179.1"/>
		<rect x="33" y="1.5" class="st1" width="31.5" height="179.1"/>
		<rect x="64.5" y="1.5" class="st2" width="31.5" height="179.1"/>
		<rect x="96" y="1.5" class="st3" width="31.5" height="179.1"/>
		<rect x="127.5" y="1.5" class="st4" width="31.5" height="179.1"/>
		<rect x="159" y="1.5" class="st5" width="31.5" height="179.1"/>
		<rect x="190.5" y="1.5" class="st6" width="31.5" height="179.1"/>
		<rect x="222" y="1.5" class="st7" width="31.5" height="179.1"/>
		<rect x="253.5" y="1.5" class="st8" width="31.5" height="179.1"/>
		<rect x="285" y="1.5" class="st9" width="31.5" height="179.1"/>
	</g>
	<path class="st10" d="M300,182.1H18c-10,0-18-8.1-18-18V18C0,8.1,8.1,0,18,0H300c10,0,18,8.1,18,18v146
		C318,174,309.9,182.1,300,182.1z M18,3C9.8,3,3,9.8,3,18v146c0,8.3,6.8,15,15,15H300c8.3,0,15-6.8,15-15V18c0-8.3-6.8-15-15-15H18z
		"/>
</g>
<g>
	<rect x="240" y="73.5" class="st10" width="49.5" height="18"/>
</g>
<g>
	<rect x="28.5" y="73.5" class="st10" width="207" height="18"/>
</g>
</svg>
