<?xml version="1.0" encoding="utf-8"?>
<!-- Generator: Adobe Illustrator 20.1.0, SVG Export Plug-In . SVG Version: 6.00 Build 0)  -->
<svg version="1.1" id="Lil_Papers" xmlns="http://www.w3.org/2000/svg" xmlns:xlink="http://www.w3.org/1999/xlink" x="0px" y="0px"
	 viewBox="0 0 64 88" style="enable-background:new 0 0 64 88;" xml:space="preserve">
<style type="text/css">
	.st0{fill:#3E8ED7;}
	.st1{fill:#E2F2FB;}
	.st2{fill:#FFFFFF;}
	.st3{fill:#C1E5F4;}
	.st4{fill:#69A9DE;}
	.st5{clip-path:url(#SVGID_2_);fill:#C1E5F4;}
</style>
<g>
	<path class="st0" d="M63,88H1c-0.6,0-1-0.4-1-1V1c0-0.6,0.4-1,1-1h62c0.6,0,1,0.4,1,1v86C64,87.6,63.6,88,63,88z"/>
	<polyline class="st2" points="56,7.5 44,7.5 44,8.5 56,8.5 	"/>
	<polyline class="st2" points="56,11.5 48,11.5 48,12.5 56,12.5 	"/>
	<path class="st4" d="M60.5,6V4c0-0.3-0.2-0.5-0.5-0.5c-0.3,0-0.5,0.2-0.5,0.5v2c0,0.3,0.2,0.5,0.5,0.5C60.3,6.5,60.5,6.3,60.5,6z
		 M60.5,12V9c0-0.3-0.2-0.5-0.5-0.5c-0.3,0-0.5,0.2-0.5,0.5v3c0,0.3,0.2,0.5,0.5,0.5C60.3,12.5,60.5,12.3,60.5,12z M60.5,18v-3
		c0-0.3-0.2-0.5-0.5-0.5c-0.3,0-0.5,0.2-0.5,0.5v3c0,0.3,0.2,0.5,0.5,0.5C60.3,18.5,60.5,18.3,60.5,18z M60.5,24v-3
		c0-0.3-0.2-0.5-0.5-0.5c-0.3,0-0.5,0.2-0.5,0.5v3c0,0.3,0.2,0.5,0.5,0.5C60.3,24.5,60.5,24.3,60.5,24z M60.5,30v-3
		c0-0.3-0.2-0.5-0.5-0.5c-0.3,0-0.5,0.2-0.5,0.5v3c0,0.3,0.2,0.5,0.5,0.5C60.3,30.5,60.5,30.3,60.5,30z M60.5,36v-3
		c0-0.3-0.2-0.5-0.5-0.5c-0.3,0-0.5,0.2-0.5,0.5v3c0,0.3,0.2,0.5,0.5,0.5C60.3,36.5,60.5,36.3,60.5,36z M60.5,42v-3
		c0-0.3-0.2-0.5-0.5-0.5c-0.3,0-0.5,0.2-0.5,0.5v3c0,0.3,0.2,0.5,0.5,0.5C60.3,42.5,60.5,42.3,60.5,42z M60.5,48v-3
		c0-0.3-0.2-0.5-0.5-0.5c-0.3,0-0.5,0.2-0.5,0.5v3c0,0.3,0.2,0.5,0.5,0.5C60.3,48.5,60.5,48.3,60.5,48z M60.5,54v-3
		c0-0.3-0.2-0.5-0.5-0.5c-0.3,0-0.5,0.2-0.5,0.5v3c0,0.3,0.2,0.5,0.5,0.5C60.3,54.5,60.5,54.3,60.5,54z M60.5,60v-3
		c0-0.3-0.2-0.5-0.5-0.5c-0.3,0-0.5,0.2-0.5,0.5v3c0,0.3,0.2,0.5,0.5,0.5C60.3,60.5,60.5,60.3,60.5,60z M60.5,66v-3
		c0-0.3-0.2-0.5-0.5-0.5c-0.3,0-0.5,0.2-0.5,0.5v3c0,0.3,0.2,0.5,0.5,0.5C60.3,66.5,60.5,66.3,60.5,66z M60.5,72v-3
		c0-0.3-0.2-0.5-0.5-0.5c-0.3,0-0.5,0.2-0.5,0.5v3c0,0.3,0.2,0.5,0.5,0.5C60.3,72.5,60.5,72.3,60.5,72z M60.5,78v-3
		c0-0.3-0.2-0.5-0.5-0.5c-0.3,0-0.5,0.2-0.5,0.5v3c0,0.3,0.2,0.5,0.5,0.5C60.3,78.5,60.5,78.3,60.5,78z M60.5,84v-3
		c0-0.3-0.2-0.5-0.5-0.5c-0.3,0-0.5,0.2-0.5,0.5v3c0,0.3,0.2,0.5,0.5,0.5C60.3,84.5,60.5,84.3,60.5,84z"/>
	<path class="st4" d="M4.5,6V4c0-0.3-0.2-0.5-0.5-0.5C3.7,3.5,3.5,3.7,3.5,4v2c0,0.3,0.2,0.5,0.5,0.5C4.3,6.5,4.5,6.3,4.5,6z
		 M4.5,12V9c0-0.3-0.2-0.5-0.5-0.5C3.7,8.5,3.5,8.7,3.5,9v3c0,0.3,0.2,0.5,0.5,0.5C4.3,12.5,4.5,12.3,4.5,12z M4.5,18v-3
		c0-0.3-0.2-0.5-0.5-0.5c-0.3,0-0.5,0.2-0.5,0.5v3c0,0.3,0.2,0.5,0.5,0.5C4.3,18.5,4.5,18.3,4.5,18z M4.5,24v-3
		c0-0.3-0.2-0.5-0.5-0.5c-0.3,0-0.5,0.2-0.5,0.5v3c0,0.3,0.2,0.5,0.5,0.5C4.3,24.5,4.5,24.3,4.5,24z M4.5,30v-3
		c0-0.3-0.2-0.5-0.5-0.5c-0.3,0-0.5,0.2-0.5,0.5v3c0,0.3,0.2,0.5,0.5,0.5C4.3,30.5,4.5,30.3,4.5,30z M4.5,36v-3
		c0-0.3-0.2-0.5-0.5-0.5c-0.3,0-0.5,0.2-0.5,0.5v3c0,0.3,0.2,0.5,0.5,0.5C4.3,36.5,4.5,36.3,4.5,36z M4.5,42v-3
		c0-0.3-0.2-0.5-0.5-0.5c-0.3,0-0.5,0.2-0.5,0.5v3c0,0.3,0.2,0.5,0.5,0.5C4.3,42.5,4.5,42.3,4.5,42z M4.5,48v-3
		c0-0.3-0.2-0.5-0.5-0.5c-0.3,0-0.5,0.2-0.5,0.5v3c0,0.3,0.2,0.5,0.5,0.5C4.3,48.5,4.5,48.3,4.5,48z M4.5,54v-3
		c0-0.3-0.2-0.5-0.5-0.5c-0.3,0-0.5,0.2-0.5,0.5v3c0,0.3,0.2,0.5,0.5,0.5C4.3,54.5,4.5,54.3,4.5,54z M4.5,60v-3
		c0-0.3-0.2-0.5-0.5-0.5c-0.3,0-0.5,0.2-0.5,0.5v3c0,0.3,0.2,0.5,0.5,0.5C4.3,60.5,4.5,60.3,4.5,60z M4.5,66v-3
		c0-0.3-0.2-0.5-0.5-0.5c-0.3,0-0.5,0.2-0.5,0.5v3c0,0.3,0.2,0.5,0.5,0.5C4.3,66.5,4.5,66.3,4.5,66z M4.5,72v-3
		c0-0.3-0.2-0.5-0.5-0.5c-0.3,0-0.5,0.2-0.5,0.5v3c0,0.3,0.2,0.5,0.5,0.5C4.3,72.5,4.5,72.3,4.5,72z M4.5,78v-3
		c0-0.3-0.2-0.5-0.5-0.5c-0.3,0-0.5,0.2-0.5,0.5v3c0,0.3,0.2,0.5,0.5,0.5C4.3,78.5,4.5,78.3,4.5,78z M4.5,84v-3
		c0-0.3-0.2-0.5-0.5-0.5c-0.3,0-0.5,0.2-0.5,0.5v3c0,0.3,0.2,0.5,0.5,0.5C4.3,84.5,4.5,84.3,4.5,84z"/>
	<path class="st4" d="M6,3.5H4C3.7,3.5,3.5,3.7,3.5,4c0,0.3,0.2,0.5,0.5,0.5h2c0.3,0,0.5-0.2,0.5-0.5C6.5,3.7,6.3,3.5,6,3.5z
		 M12,3.5H9C8.7,3.5,8.5,3.7,8.5,4c0,0.3,0.2,0.5,0.5,0.5h3c0.3,0,0.5-0.2,0.5-0.5C12.5,3.7,12.3,3.5,12,3.5z M18,3.5h-3
		c-0.3,0-0.5,0.2-0.5,0.5c0,0.3,0.2,0.5,0.5,0.5h3c0.3,0,0.5-0.2,0.5-0.5C18.5,3.7,18.3,3.5,18,3.5z M24,3.5h-3
		c-0.3,0-0.5,0.2-0.5,0.5c0,0.3,0.2,0.5,0.5,0.5h3c0.3,0,0.5-0.2,0.5-0.5C24.5,3.7,24.3,3.5,24,3.5z M30,3.5h-3
		c-0.3,0-0.5,0.2-0.5,0.5c0,0.3,0.2,0.5,0.5,0.5h3c0.3,0,0.5-0.2,0.5-0.5C30.5,3.7,30.3,3.5,30,3.5z M36,3.5h-3
		c-0.3,0-0.5,0.2-0.5,0.5c0,0.3,0.2,0.5,0.5,0.5h3c0.3,0,0.5-0.2,0.5-0.5C36.5,3.7,36.3,3.5,36,3.5z M42,3.5h-3
		c-0.3,0-0.5,0.2-0.5,0.5c0,0.3,0.2,0.5,0.5,0.5h3c0.3,0,0.5-0.2,0.5-0.5C42.5,3.7,42.3,3.5,42,3.5z M48,3.5h-3
		c-0.3,0-0.5,0.2-0.5,0.5c0,0.3,0.2,0.5,0.5,0.5h3c0.3,0,0.5-0.2,0.5-0.5C48.5,3.7,48.3,3.5,48,3.5z M54,3.5h-3
		c-0.3,0-0.5,0.2-0.5,0.5c0,0.3,0.2,0.5,0.5,0.5h3c0.3,0,0.5-0.2,0.5-0.5C54.5,3.7,54.3,3.5,54,3.5z M60,3.5h-3
		c-0.3,0-0.5,0.2-0.5,0.5c0,0.3,0.2,0.5,0.5,0.5h3c0.3,0,0.5-0.2,0.5-0.5C60.5,3.7,60.3,3.5,60,3.5z"/>
	<polyline class="st4" points="60,43.5 48,43.5 48,44.5 60,44.5 	"/>
	<polyline class="st4" points="16,43.5 4,43.5 4,44.5 16,44.5 	"/>
	<polyline class="st4" points="31.5,60 31.5,84 32.5,84 32.5,60 	"/>
	<polyline class="st4" points="31.5,4 31.5,28 32.5,28 32.5,4 	"/>
	<path class="st4" d="M6,83.5H4c-0.3,0-0.5,0.2-0.5,0.5c0,0.3,0.2,0.5,0.5,0.5h2c0.3,0,0.5-0.2,0.5-0.5C6.5,83.7,6.3,83.5,6,83.5z
		 M12,83.5H9c-0.3,0-0.5,0.2-0.5,0.5c0,0.3,0.2,0.5,0.5,0.5h3c0.3,0,0.5-0.2,0.5-0.5C12.5,83.7,12.3,83.5,12,83.5z M18,83.5h-3
		c-0.3,0-0.5,0.2-0.5,0.5c0,0.3,0.2,0.5,0.5,0.5h3c0.3,0,0.5-0.2,0.5-0.5C18.5,83.7,18.3,83.5,18,83.5z M24,83.5h-3
		c-0.3,0-0.5,0.2-0.5,0.5c0,0.3,0.2,0.5,0.5,0.5h3c0.3,0,0.5-0.2,0.5-0.5C24.5,83.7,24.3,83.5,24,83.5z M30,83.5h-3
		c-0.3,0-0.5,0.2-0.5,0.5c0,0.3,0.2,0.5,0.5,0.5h3c0.3,0,0.5-0.2,0.5-0.5C30.5,83.7,30.3,83.5,30,83.5z M36,83.5h-3
		c-0.3,0-0.5,0.2-0.5,0.5c0,0.3,0.2,0.5,0.5,0.5h3c0.3,0,0.5-0.2,0.5-0.5C36.5,83.7,36.3,83.5,36,83.5z M42,83.5h-3
		c-0.3,0-0.5,0.2-0.5,0.5c0,0.3,0.2,0.5,0.5,0.5h3c0.3,0,0.5-0.2,0.5-0.5C42.5,83.7,42.3,83.5,42,83.5z M48,83.5h-3
		c-0.3,0-0.5,0.2-0.5,0.5c0,0.3,0.2,0.5,0.5,0.5h3c0.3,0,0.5-0.2,0.5-0.5C48.5,83.7,48.3,83.5,48,83.5z M54,83.5h-3
		c-0.3,0-0.5,0.2-0.5,0.5c0,0.3,0.2,0.5,0.5,0.5h3c0.3,0,0.5-0.2,0.5-0.5C54.5,83.7,54.3,83.5,54,83.5z M60,83.5h-3
		c-0.3,0-0.5,0.2-0.5,0.5c0,0.3,0.2,0.5,0.5,0.5h3c0.3,0,0.5-0.2,0.5-0.5C60.5,83.7,60.3,83.5,60,83.5z"/>
	<polygon class="st2" points="44,56 44,55.5 20.5,55.5 20.5,32.5 43.5,32.5 43.5,56 44,56 44,55.5 44,56 44.5,56 44.5,31.5 
		19.5,31.5 19.5,56.5 44.5,56.5 44.5,56 	"/>
	<rect x="18" y="30" class="st2" width="4" height="4"/>
	<rect x="18" y="54" class="st2" width="4" height="4"/>
	<rect x="42" y="54" class="st2" width="4" height="4"/>
	<rect x="42" y="30" class="st2" width="4" height="4"/>
	<polyline class="st4" points="11.5,8 11.5,16 12.5,16 12.5,8 	"/>
	<polyline class="st4" points="16,11.5 8,11.5 8,12.5 16,12.5 	"/>
	<polyline class="st4" points="51.5,72 51.5,80 52.5,80 52.5,72 	"/>
	<polyline class="st4" points="56,75.5 48,75.5 48,76.5 56,76.5 	"/>
	<polyline class="st2" points="16,79.5 8,79.5 8,80.5 16,80.5 	"/>
	<path class="st4" d="M16,12h-0.5c0,1.9-1.6,3.5-3.5,3.5c-1.9,0-3.5-1.6-3.5-3.5c0-1.9,1.6-3.5,3.5-3.5c1.9,0,3.5,1.6,3.5,3.5H16
		h0.5c0-2.5-2-4.5-4.5-4.5c-2.5,0-4.5,2-4.5,4.5c0,2.5,2,4.5,4.5,4.5c2.5,0,4.5-2,4.5-4.5H16z"/>
</g>
</svg>
