<?xml version="1.0" encoding="utf-8"?>
<!-- Generator: Adobe Illustrator 19.2.1, SVG Export Plug-In . SVG Version: 6.00 Build 0)  -->
<svg version="1.1" id="Layer_1" xmlns="http://www.w3.org/2000/svg" xmlns:xlink="http://www.w3.org/1999/xlink" x="0px" y="0px"
	 viewBox="0 0 306.5 105.5" style="enable-background:new 0 0 306.5 105.5;" xml:space="preserve">
<style type="text/css">
	.st0{fill:#FFFFFF;}
</style>
<g>
	<path class="st0" d="M16.6,28.5c0-1.9-3-1.1-3.8-1.5c-1.5-0.7-2.6-2.8-2.6-4.6c0-5.6,5.8-8.3,12.9-8.3c6.1,0,9.8,4.1,15.1,4.1
		c0.6,0,1.3-0.2,1.9-0.1c-1.5,4.6-1.9,13.5-1.9,19.1c-3.5,0.3-15.5,2.9-20.2,4.2c-3,0.8-1.8,4.7,1.2,3.9c6.4-1.8,11.5-2.7,19.2-2.7
		c0.2,4,0.8,10.2,0.8,14.4c0,9.2-0.7,16.9-10.8,16.9c-3,0-6.5-2.5-6.5-5.4c0-1.5,1.9-3,2.9-3c2.5,0,1.4,2.8,3.4,2.8
		c2.1,0,2.8-1.1,2.8-3.1c0-1.8-3.1-4.4-4.8-4.4c-5.7,0-9.2,3.3-9.2,8.6c0,4.8,6.3,9.4,12.9,9.4c14.8,0,21.5-9.6,21.5-24.1
		c0-3.6,0.1-9-0.6-12.6c2.7,0.1,3.5,3.8,5.4,4.1c2.1,0.4,4.7-7.1,3-8.9c-2-2.1-2.9-1.9-8.1-1.3c-0.3-7.3-0.5-14.1,2.1-21.4
		c0.2-0.2,0.4-0.3,0.7-0.5c1-0.6,2-1.3,3.1-1.9c1.1-0.6,2.3-1.3,3.6-1.8c0.6-0.3,1.3-0.5,1.9-0.7c0.7-0.2,1.3-0.5,2-0.6
		c0.7-0.1,1.4-0.3,2-0.4c0.7-0.1,1.4-0.2,2-0.1C69.8,8.8,71,9,72,9.2c1.1,0.3,1.9,0.8,2.6,1.4c0.7,0.5,1.2,1.2,1.6,1.9
		c0.4,0.7,0.7,1.4,0.9,2.1c0.4,1.4,0.6,2.8,0.4,3.7c-0.7,5.1,5,8.9,9.7,8.1c4.7-0.8,7.9-5.3,7-10c0,0,0,0,0-0.1c0,0,0-0.1,0-0.1
		c0,0,0-0.1,0-0.1c-0.1-0.2-0.1-0.4-0.3-0.7c-0.2-0.5-0.6-1.2-1-2.1c-0.9-1.7-2.3-4-4.5-6.4c-1.1-1.2-2.5-2.5-4.1-3.6
		c-1.6-1.1-3.5-2-5.5-2.6c-2-0.6-4.1-0.8-6.1-0.7c-2,0.1-3.9,0.4-5.7,1c-1.8,0.5-3.4,1.2-4.9,2c-0.8,0.3-1.5,0.7-2.2,1.1
		c-0.4,0.2-0.7,0.4-1.1,0.6c-0.3,0.2-0.7,0.4-1,0.6C56.4,6,55.2,6.8,54,7.5c-1.2,0.7-2.3,1.5-3.3,2.1c-0.4,0.3-0.9,0.6-1.4,0.8
		c-0.5,0.2-1.1,0.4-1.6,0.6c0,0-0.1,0-0.1,0c-0.3,0.1-0.5,0.2-0.7,0.3c-1.8,0.6-3.5,1.2-4.7,1.2c-7.6,0-10.9-3.4-19.4-3.4
		C12.2,9.2,0,15.9,0,28c0,2.4,0.9,9.2,4.5,9.2C6.8,37.1,16.6,29.8,16.6,28.5z"/>
	<path class="st0" d="M305.8,64.9c-0.8-0.6-1.9-0.5-2.5,0.3c0.1-0.1-0.7,0.7-2.3,2.1c-1.6,1.3-4.1,3.1-7.6,5
		c-1.7,0.9-3.7,1.9-5.9,2.9c-1,0.4-2.1,0.9-3.2,1.3c-0.5-1-1-1.9-1.5-2.8c8-2.4,13.2-14.4,15.1-20.7c0.5-1.4,0-3.1-1.8-3.1
		c-0.7,0-1.5,0.5-1.9,1.5c-3.5,10.6-5.6,13.9-12.6,18.2c-1.2-2.8-4.7-6.8-6.8-7.7c0.8-10.2,10.6-44,11.8-47.5
		c0.2-0.7,0.4-1.5,0.4-2.1c0-1.6-0.9-2.8-3.5-2.8c-0.8,0-3.2-0.5-3.8-0.5c-2.3,0-3.2,0.4-4.3,3c-0.4,0.7-5.9,26.4-8.8,45.1
		c-1.5,4.6-3.2,9.9-7.4,10.1c-2.9,0.2-3.8-7.3-3.8-14.8c0-15.2,4.4-29.8,4.8-45c0.1-1.4-0.8-2.4-2.5-2.4c-2.3,0-2.9-0.2-4-0.2
		c-1.7,0-2.4,0.7-2.5,2.4c-1.5,15.1-4.5,33.7-4.5,48.3c0,0.6,0,1.3,0,2c-0.6,0.2-1.1,0.6-1.3,1c-1.5,4-7.2,11.2-12.4,11.2
		c-4.7,0-7.2-8.1-6.8-12.9c1.5,0.3,4.2,0.5,5.7,0.5c6.7,0,11.3-7.8,11.3-13.7c0-5.2-3.6-12.8-9.6-12.8c-11.7,0-15.6,16.2-16,26.2
		c-1.3,3.8-3,7.8-5.7,7.8c-1,0-1.2-3.9-1.2-7.1c0-6.6,1.2-12.9,1.2-19.5c0-4.3-1.3-8-6.4-8h-0.1c-6.6-0.1-9.3,8.2-13,13
		c-0.4-7.3,2.7-31.5,3.1-36.7V6.2c0.1-0.6-1.8-1.3-2.5-1.3h-5.5c-1.1,0-2.2,0.4-2.2,1.6c-0.7,11.7-1.1,19.4-1.1,31.1v16.6l0,0
		c0,0,0,0.7,0,1.8c0,0.1,0,0.2,0,0.3v1.7c0,0,0,0.1,0,0.1c0,0.8,0,1.7-0.1,2.7c0,1-0.1,2-0.2,3.1c0,0.6-0.1,1.1-0.2,1.6
		c-0.1,0.6-0.2,1.1-0.3,1.6l-0.1,0.4l-0.1,0.3c-0.1,0.2-0.1,0.5-0.2,0.6c-0.1,0.1-0.2,0.3-0.2,0.5c-0.1,0-0.1,0.2-0.1,0.2
		c0,0,0,0.1,0.1,0c0,0,0.1,0,0.1,0c0,0,0,0,0,0c0,0,0,0-0.1,0c0,0-0.1,0-0.1,0c-0.2-0.1-0.3-0.1-0.5-0.1c-0.7-0.2-1.5-0.7-2.3-1.3
		c1.3-2.1,2-4.6,1.9-7.5c-0.7-11-17.2-22.9-18.4-29.2c-0.3-1.6,2.5-2,2.3-3.4c-0.3-2-1.9-1.9-3-1.8c-1.2,0.1-2.1,0.3-3,0.5
		c-0.5-0.4-1.2-0.6-2-0.5c-1.5,0.1-5.6,0.4-11.6,0c0.1-4.6,1.2-7.5,1.2-12.3v-0.1c0-1.3-0.5-2.2-1.8-2.2c-2.5,0-6.4,0.8-6.4,4.4
		c0,3.6-0.6,6.8-0.5,10.5c-2.5,0.2-4.7-0.5-7.2-0.5c-1.8,0-2.2,3.4-2.2,4.6c0,1.5,0.2,2.4,1,2.4c3.5,0,6.6-0.5,7.9-0.7
		c-0.6,9.1-1.8,14.3-2.5,20.7c-0.4,3.3-1,8.6-1,12c0,0,0,0,0,0c-0.1,0.8-0.2,1.6-0.3,2.4c-0.1,0.5-0.2,1.1-0.3,1.7
		c-0.1,0.6-0.3,1.1-0.4,1.6c-0.2,0.5-0.3,1-0.5,1.4c-0.1,0.2-0.2,0.4-0.3,0.6c-0.1,0.2-0.2,0.4-0.3,0.5c-0.1,0.1-0.2,0.3-0.3,0.4
		c-0.1,0.1-0.2,0.2-0.4,0.3c-0.3,0.1-0.5,0.3-0.9,0.3c-0.2,0-0.3,0.1-0.4,0.1c-0.1,0-0.3,0-0.4,0c-0.1,0-0.2,0-0.4,0
		c-0.1,0-0.2,0-0.2,0c-1.1-2.2-1.7-5.7-1.4-12.3c0.3-6.9,1.7-16.5,1.7-23.4c0-3.1-1.5-6.5-5.3-6.5c-4.9,0-11.9,10-14.2,14.4
		c0.3-2.6,1.1-10.4,1.3-13s0.1-2.8-4.5-2.8c-3,0-3.4,0.5-3.4,1.7c0,6.3-0.5,13.7-1.1,21.1c-1.7,3.6-3.9,7.2-7.1,7.2
		c-1,0-2-0.3-2.8-0.7c1.4-2.1,2.4-6.8,2.4-9.3c0-3.8-2.7-7-6.6-7c-5.2,0-8.2,3.6-8.2,8.6c0,3.9,4.1,8.4,7.1,10.4
		c-1.8,3.5-5.5,5.8-9.6,5.8C72.2,68,70,57.1,70,53c0-7.7,2.8-16.6,12-16.6c6.2,0,6.2,4.2,8.8,4.2c0.3,0,1.1-0.5,1.1-0.8
		c0-4.6-7.2-8.3-11-8.3c-12.8,0-21.7,10.2-21.7,22.8c0,9.5,5.6,19.9,15.7,19.9c7.6,0,12.3-5,16.2-11c1.4,0.3,2.6,0.6,3.9,0.6
		c2.7,0,5.2-1.8,7.4-4.3c-0.3,4.4-0.5,8.7-0.5,12.6c0,1.4,0.3,1.9,1.2,2.2c1,0.4,2.7,0.1,3.8,0.1c1.5,0,1.7,0.1,2-1.6
		c0.2-1.3,0.9-16.1,0.9-17.3c0-3.1,7.4-16,10.9-16c0.7,0,1.2,1.3,1.2,2.1c0,6.7-2.1,17.6-2.1,24.4c0,7.4,3.5,9.8,5.2,10.6
		c1,0.6,3.6,1.4,5.3,1.5c0.1,0,0.2,0,0.2,0c0.3,0,0.6,0,1,0c0.7,0,1.4-0.2,2.2-0.4c0.4-0.2,0.8-0.3,1.2-0.5c0.4-0.2,0.7-0.5,1.1-0.7
		c0.4-0.3,0.6-0.6,1-0.9c0.3-0.3,0.6-0.6,0.8-1c0.4-0.5,0.7-1,1-1.6c1.7,1.4,3.6,2.3,5.4,2.3c4.1,0,7.8-4.4,10.3-9.5
		c2.6,4.7,9.1,8,14.1,8c2.7,0,5.2-0.7,7.3-2c1.1,1,2.2,2,3.9,2.8c0.4,0.2,0.9,0.4,1.4,0.6c0.3,0.1,0.6,0.1,0.9,0.2
		c0.3,0.1,0.6,0.1,1,0.1c0.4,0,0.7,0,1.1,0c0.1,0,0.2,0,0.3-0.1c0.1,1,1,1.7,1.3,1.7c2.8,0.2,4.9,0.5,7.6-0.4
		c1.1-0.3,1.7-0.5,1.6-1.5c-0.5-6.6-2.6-15.6-2.3-25.8c1.9-3.5,6.5-12,9.4-12c1.1,0,2,1.1,2,2.4c0,6.3-1.5,12.3-1.5,19.8
		c0,4.4,0.5,11.9,6.5,11.9c3.7,0,7.1-3.4,9.5-7.5c2,5.7,6.6,10.9,12.9,10.9c6.7,0,12.6-4.7,15.9-10.5c1.1,5.5,3.5,10.6,8.7,10.6
		c3.1,0,6.2-2.5,8.8-5.8c-0.1,1.3-0.2,2.5-0.2,3.5c0,3.2,0.1,6.2,0.2,8.8c-1,0.2-2,0.3-3,0.5c-6.8,1-14.2,1.7-22,1.7c-1,0-2,0-3,0
		c-1,0-2,0-3-0.1c-1,0-2,0-3-0.1c-1,0-2.1-0.1-3.1-0.1c-2.1-0.1-4.1-0.2-6.2-0.4c-2.1-0.1-4.3-0.4-6.4-0.6c-2.2-0.2-4.4-0.4-6.6-0.7
		c-2.2-0.2-4.5-0.4-6.8-0.6c-4.6-0.3-9.2-0.6-13.8-0.9c-9.3-0.5-18.7-0.8-28.1-0.9l-7.1-0.1c-2.3,0-4.7,0-7,0c-4.7,0-9.3,0.1-14,0.2
		c-9.2,0.2-18.3,0.6-27.1,1c-8.8,0.4-17.3,0.7-25.3,1.1c-8,0.3-15.7,0.5-22.7,0.6c-3.5,0-6.9,0.1-10.1,0.1c-3.2,0-6.2-0.1-9.1-0.1
		c-5.7-0.2-10.6-0.5-14.7-1c-4-0.5-7.1-1.1-9.1-1.8c-1-0.3-1.6-0.7-2-0.9c-0.3-0.2-0.6-0.4-0.6-0.4c-0.7-0.5-1.7-0.3-2.2,0.4
		c-0.5,0.7-0.3,1.7,0.4,2.2c0,0,0.1,0,0.2,0.1c0.1,0.1,0.4,0.3,0.7,0.4c0.6,0.3,1.5,0.6,2.6,1c2.3,0.6,5.5,1.1,9.7,1.5
		c4.1,0.4,9.1,0.7,14.8,1c2.9,0.2,5.9,0.3,9.1,0.4c3.2,0.1,6.6,0.3,10.1,0.4c14.1,0.5,30.5,1,48.1,1.6c8.8,0.3,17.9,0.6,27.1,0.9
		c4.6,0.1,9.2,0.3,13.9,0.4c2.3,0.1,4.7,0.1,7,0.2l7,0.2c9.3,0.3,18.7,0.5,27.8,0.9c4.6,0.2,9.1,0.5,13.6,0.8
		c2.2,0.2,4.5,0.3,6.7,0.5c2.2,0.2,4.4,0.3,6.6,0.5c2.2,0.1,4.3,0.3,6.6,0.4c2.2,0.1,4.4,0.2,6.6,0.2c2.2,0,4.3,0.1,6.4,0
		c1.1,0,2.1,0,3.1-0.1c1-0.1,2.1-0.1,3.1-0.2c8.2-0.4,16-1.3,23.1-2.9c0.8-0.2,1.5-0.3,2.2-0.5c1.5,12.7,5.3,16.5,11.3,16.5
		c5.6,0,10.8-6.9,10.8-14.7c0-3.7-0.5-6.5-1.3-8.9c3.6-1.7,6.8-3.6,9.3-5.3c3.5-2.4,6-4.7,7.7-6.3c1.6-1.7,2.4-2.7,2.4-2.8
		C306.7,66.6,306.6,65.5,305.8,64.9z M233.4,35.1c4.3,0,5.1,7,5.1,9.6c0,3.5-3.5,7.2-5.6,7.2c-1.3,0-4.6-0.4-5.9-0.5
		C227.9,44.9,230.3,35.1,233.4,35.1z M89.9,57.9c-1.8-1.1-2.9-4.6-2.9-6.7c0-1.3,0.5-4,2.3-4c1.7,0,2.3,3,2.3,4.4
		C91.5,53.1,90.5,56.5,89.9,57.9z M147.2,67.9c-1.5,0-4.4-1.9-4.4-7.4c0-8.7,2.9-26.3,3.3-29.3c3.2-0.7,6.2-0.8,9.5-1.3
		c-0.3,0.8-0.5,1.7-0.6,2.8c-0.3,2.4,1.3,4.5,2.7,6.2c0.1,2.6-2.3,12.9-2.5,13.4c-0.9,2.5-1.9,7.4-3.6,11.1
		C150.5,66.1,148.5,67.9,147.2,67.9z M162.3,42.5c5.2,4,10.1,12.8,10.9,19.5c-0.8-0.6-1.5-1.1-2.2-1.6c-0.9-0.6-1.9-1.2-2.7-1.6
		c-0.9-0.4-1.7-0.7-2.5-0.9c-0.4-0.1-0.7-0.1-1-0.2c-0.4-0.1-0.8-0.2-1.3-0.2c-1.2,0-3.1,0.4-5.2,1.8
		C158.7,57.4,161.6,47.3,162.3,42.5z M165.7,68.5c-2.2,0-5.6-1.5-5.8-4.3c-0.1-1.2,1.8-1.9,3.4-2.5c0.1,0,0.2,0,0.3,0
		c0.1,0,0.4,0,0.6,0.1c0.1,0.1,0.3,0.1,0.4,0.2c0.4,0.1,0.9,0.4,1.5,0.8c0.6,0.4,1.3,0.9,2,1.5c0.9,0.8,2,1.8,3.1,2.8
		C169.3,68.3,166.8,68.5,165.7,68.5z M273.5,70.3c0.9,3.5,2.8,4.9,5.6,4.7c0.5,1,1,1.9,1.5,2.8c-0.1,0-0.2,0.1-0.3,0.1
		c-2.4,0.8-4.9,1.5-7.6,2.2C272.8,76.8,272.9,73.9,273.5,70.3z M283.5,87.4c0,5.3-1.9,11.7-4.8,11.7c-2.8,0-5-6.5-5.8-12
		c0.2-0.1,0.5-0.1,0.7-0.2c3.2-1,6.1-2,8.8-3.2c0.1-0.1,0.3-0.1,0.4-0.2C283.3,84.9,283.5,86.2,283.5,87.4z"/>
</g>
</svg>
