<?xml version="1.0" encoding="utf-8"?>
<!-- Generator: Adobe Illustrator 20.1.0, SVG Export Plug-In . SVG Version: 6.00 Build 0)  -->
<svg version="1.1" id="Lil_Papers" xmlns="http://www.w3.org/2000/svg" xmlns:xlink="http://www.w3.org/1999/xlink" x="0px" y="0px"
	 viewBox="0 0 64 88" style="enable-background:new 0 0 64 88;" xml:space="preserve">
<style type="text/css">
	.st0{fill:#3E8ED7;}
	.st1{fill:#E2F2FB;}
	.st2{fill:#FFFFFF;}
	.st3{fill:#C1E5F4;}
	.st4{fill:#69A9DE;}
	.st5{clip-path:url(#SVGID_2_);fill:#C1E5F4;}
</style>
<g>
	<path class="st0" d="M62,2v84H2V2H62 M63,0H1C0.4,0,0,0.4,0,1v86c0,0.6,0.4,1,1,1h62c0.6,0,1-0.4,1-1V1C64,0.4,63.6,0,63,0z"/>
	<polygon class="st2" points="12,44.1 26.1,24 40.3,44.1 	"/>
	<path class="st0" d="M12,44.1l0.4,0.3l13.7-19.5l13.2,18.7H12V44.1l0.4,0.3L12,44.1v0.5h28.3c0.2,0,0.4-0.1,0.4-0.3
		c0.1-0.2,0.1-0.4,0-0.5L26.5,23.7c-0.1-0.1-0.2-0.2-0.4-0.2c-0.2,0-0.3,0.1-0.4,0.2L11.6,43.8c-0.1,0.2-0.1,0.4,0,0.5
		c0.1,0.2,0.3,0.3,0.4,0.3V44.1z"/>
	<rect x="32" y="40" class="st1" width="20" height="20"/>
	<path class="st0" d="M52,60v-0.5H32.5v-19h19l0,19.5H52v-0.5V60h0.5V40c0-0.1-0.1-0.3-0.1-0.4c-0.1-0.1-0.2-0.1-0.4-0.1H32
		c-0.1,0-0.3,0.1-0.4,0.1c-0.1,0.1-0.1,0.2-0.1,0.4v20c0,0.1,0.1,0.3,0.1,0.4s0.2,0.1,0.4,0.1h20c0.1,0,0.3-0.1,0.4-0.1
		c0.1-0.1,0.1-0.2,0.1-0.4H52z"/>
	<circle class="st0" cx="28.3" cy="64" r="12"/>
	<polyline class="st0" points="48,11 16,11 16,13 48,13 	"/>
</g>
</svg>
