<?xml version="1.0" encoding="utf-8"?>
<!-- Generator: Adobe Illustrator 20.1.0, SVG Export Plug-In . SVG Version: 6.00 Build 0)  -->
<svg version="1.1" id="Lil_Papers" xmlns="http://www.w3.org/2000/svg" xmlns:xlink="http://www.w3.org/1999/xlink" x="0px" y="0px"
	 viewBox="0 0 128 88" style="enable-background:new 0 0 128 88;" xml:space="preserve">
<style type="text/css">
	.st0{fill:#3E8ED7;}
	.st1{fill:#E2F2FB;}
	.st2{fill:#FFFFFF;}
	.st3{fill:#C1E5F4;}
	.st4{fill:#69A9DE;}
	.st5{clip-path:url(#SVGID_2_);fill:#C1E5F4;}
</style>
<g>
	<path class="st0" d="M60,13h8c0.6,0,1-0.4,1-1c0-0.6-0.4-1-1-1h-8c-0.6,0-1,0.4-1,1C59,12.6,59.4,13,60,13"/>
	<path class="st0" d="M60,17h8c0.6,0,1-0.4,1-1c0-0.6-0.4-1-1-1h-8c-0.6,0-1,0.4-1,1C59,16.6,59.4,17,60,17"/>
	<path class="st0" d="M60,41h8c0.6,0,1-0.4,1-1c0-0.6-0.4-1-1-1h-8c-0.6,0-1,0.4-1,1C59,40.6,59.4,41,60,41"/>
	<path class="st0" d="M60,45h8c0.6,0,1-0.4,1-1c0-0.6-0.4-1-1-1h-8c-0.6,0-1,0.4-1,1C59,44.6,59.4,45,60,45"/>
	<path class="st0" d="M60,49h8c0.6,0,1-0.4,1-1c0-0.6-0.4-1-1-1h-8c-0.6,0-1,0.4-1,1C59,48.6,59.4,49,60,49"/>
	<path class="st0" d="M60,73h8c0.6,0,1-0.4,1-1c0-0.6-0.4-1-1-1h-8c-0.6,0-1,0.4-1,1C59,72.6,59.4,73,60,73"/>
	<path class="st0" d="M60,77h8c0.6,0,1-0.4,1-1c0-0.6-0.4-1-1-1h-8c-0.6,0-1,0.4-1,1C59,76.6,59.4,77,60,77"/>
	<path class="st0" d="M62,2v84H2V2H62 M64,0H1C0.4,0,0,0.4,0,1v86c0,0.6,0.4,1,1,1h63V0z"/>
	<path class="st0" d="M126,2v84H66V2H126 M127,0H64v88h63c0.6,0,1-0.4,1-1V1C128,0.4,127.6,0,127,0z"/>
	<polyline class="st0" points="40,11 8,11 8,13 40,13 	"/>
	<polyline class="st0" points="32,15.5 8,15.5 8,16.5 32,16.5 	"/>
	<polyline class="st0" points="56,23.5 8,23.5 8,24.5 56,24.5 	"/>
	<polyline class="st0" points="56,27.5 8,27.5 8,28.5 56,28.5 	"/>
	<polyline class="st0" points="56,31.5 8,31.5 8,32.5 56,32.5 	"/>
	<polyline class="st0" points="56,35.5 8,35.5 8,36.5 56,36.5 	"/>
	<polyline class="st0" points="48,39.5 8,39.5 8,40.5 48,40.5 	"/>
	<polyline class="st0" points="32,43.5 8,43.5 8,44.5 32,44.5 	"/>
	<polyline class="st0" points="56,55.5 8,55.5 8,56.5 56,56.5 	"/>
	<polyline class="st0" points="48,59.5 8,59.5 8,60.5 48,60.5 	"/>
	<polyline class="st0" points="32,63.5 8,63.5 8,64.5 32,64.5 	"/>
	<polyline class="st0" points="40,71.5 8,71.5 8,72.5 40,72.5 	"/>
	<polyline class="st0" points="120,15.5 72,15.5 72,16.5 120,16.5 	"/>
	<polyline class="st0" points="112,19.5 72,19.5 72,20.5 112,20.5 	"/>
	<polyline class="st0" points="120,23.5 72,23.5 72,24.5 120,24.5 	"/>
	<polyline class="st0" points="116,27.5 72,27.5 72,28.5 116,28.5 	"/>
	<polyline class="st0" points="120,31.5 72,31.5 72,32.5 120,32.5 	"/>
	<polyline class="st0" points="112,35.5 72,35.5 72,36.5 112,36.5 	"/>
	<polyline class="st0" points="120,39.5 72,39.5 72,40.5 120,40.5 	"/>
	<polyline class="st0" points="120,47.5 72,47.5 72,48.5 120,48.5 	"/>
	<polyline class="st0" points="104,51.5 72,51.5 72,52.5 104,52.5 	"/>
	<polyline class="st0" points="116,55.5 72,55.5 72,56.5 116,56.5 	"/>
	<polyline class="st0" points="116,63.5 72,63.5 72,64.5 116,64.5 	"/>
	<polyline class="st0" points="88,67.5 72,67.5 72,68.5 88,68.5 	"/>
</g>
</svg>
