<?xml version="1.0" encoding="utf-8"?>
<!-- Generator: Adobe Illustrator 20.1.0, SVG Export Plug-In . SVG Version: 6.00 Build 0)  -->
<svg version="1.1" id="Lil_Papers" xmlns="http://www.w3.org/2000/svg" xmlns:xlink="http://www.w3.org/1999/xlink" x="0px" y="0px"
	 viewBox="0 0 64 88" style="enable-background:new 0 0 64 88;" xml:space="preserve">
<style type="text/css">
	.st0{fill:#3E8ED7;}
	.st1{fill:#E2F2FB;}
	.st2{fill:#FFFFFF;}
	.st3{fill:#C1E5F4;}
	.st4{fill:#69A9DE;}
	.st5{clip-path:url(#SVGID_2_);fill:#C1E5F4;}
</style>
<g>
	<path class="st0" d="M62,2v84H2V2H62 M63,0H1C0.4,0,0,0.4,0,1v86c0,0.6,0.4,1,1,1h62c0.6,0,1-0.4,1-1V1C64,0.4,63.6,0,63,0z"/>
	<polyline class="st0" points="48,27 20,27 20,29 48,29 	"/>
	<polyline class="st0" points="52,11 12,11 12,13 52,13 	"/>
	<polyline class="st0" points="40,15.5 12,15.5 12,16.5 40,16.5 	"/>
	<circle class="st0" cx="14" cy="28" r="2"/>
	<polyline class="st0" points="44,35 20,35 20,37 44,37 	"/>
	<circle class="st0" cx="14" cy="36" r="2"/>
	<polyline class="st0" points="48,43 20,43 20,45 48,45 	"/>
	<circle class="st0" cx="14" cy="44" r="2"/>
	<polyline class="st0" points="48,51 20,51 20,53 48,53 	"/>
	<circle class="st0" cx="14" cy="52" r="2"/>
	<polyline class="st0" points="48,59 20,59 20,61 48,61 	"/>
	<circle class="st0" cx="14" cy="60" r="2"/>
	<polyline class="st0" points="44,67 20,67 20,69 44,69 	"/>
	<circle class="st0" cx="14" cy="68" r="2"/>
</g>
</svg>
