<?xml version="1.0" encoding="utf-8"?>
<!-- Generator: Adobe Illustrator 20.1.0, SVG Export Plug-In . SVG Version: 6.00 Build 0)  -->
<svg version="1.1" id="Lil_Papers" xmlns="http://www.w3.org/2000/svg" xmlns:xlink="http://www.w3.org/1999/xlink" x="0px" y="0px"
	 viewBox="0 0 64 88" style="enable-background:new 0 0 64 88;" xml:space="preserve">
<style type="text/css">
	.st0{fill:#3E8ED7;}
	.st1{fill:#E2F2FB;}
	.st2{fill:#FFFFFF;}
	.st3{fill:#C1E5F4;}
	.st4{fill:#69A9DE;}
	.st5{clip-path:url(#SVGID_2_);fill:#C1E5F4;}
</style>
<g>
	<path class="st0" d="M62,2v84H2V2H62 M63,0H1C0.4,0,0,0.4,0,1v86c0,0.6,0.4,1,1,1h62c0.6,0,1-0.4,1-1V1C64,0.4,63.6,0,63,0z"/>
	<path class="st0" d="M2.5,16.5H4c0.3,0,0.5-0.2,0.5-0.5c0-0.3-0.2-0.5-0.5-0.5H2.5C2.2,15.5,2,15.7,2,16C2,16.3,2.2,16.5,2.5,16.5"
		/>
	<path class="st0" d="M54.1,16.5h2.9c0.3,0,0.5-0.2,0.5-0.5c0-0.3-0.2-0.5-0.5-0.5h-2.9c-0.3,0-0.5,0.2-0.5,0.5
		C53.6,16.3,53.8,16.5,54.1,16.5z M48.2,16.5h2.9c0.3,0,0.5-0.2,0.5-0.5c0-0.3-0.2-0.5-0.5-0.5h-2.9c-0.3,0-0.5,0.2-0.5,0.5
		C47.7,16.3,47.9,16.5,48.2,16.5z M42.3,16.5h2.9c0.3,0,0.5-0.2,0.5-0.5c0-0.3-0.2-0.5-0.5-0.5h-2.9c-0.3,0-0.5,0.2-0.5,0.5
		C41.8,16.3,42,16.5,42.3,16.5z M36.4,16.5h2.9c0.3,0,0.5-0.2,0.5-0.5c0-0.3-0.2-0.5-0.5-0.5h-2.9c-0.3,0-0.5,0.2-0.5,0.5
		C35.9,16.3,36.1,16.5,36.4,16.5z M30.5,16.5h2.9c0.3,0,0.5-0.2,0.5-0.5c0-0.3-0.2-0.5-0.5-0.5h-2.9c-0.3,0-0.5,0.2-0.5,0.5
		C30,16.3,30.3,16.5,30.5,16.5z M24.6,16.5h2.9c0.3,0,0.5-0.2,0.5-0.5c0-0.3-0.2-0.5-0.5-0.5h-2.9c-0.3,0-0.5,0.2-0.5,0.5
		C24.1,16.3,24.4,16.5,24.6,16.5z M18.7,16.5h2.9c0.3,0,0.5-0.2,0.5-0.5c0-0.3-0.2-0.5-0.5-0.5h-2.9c-0.3,0-0.5,0.2-0.5,0.5
		C18.2,16.3,18.5,16.5,18.7,16.5z M12.8,16.5h2.9c0.3,0,0.5-0.2,0.5-0.5c0-0.3-0.2-0.5-0.5-0.5h-2.9c-0.3,0-0.5,0.2-0.5,0.5
		C12.3,16.3,12.6,16.5,12.8,16.5z M6.9,16.5h2.9c0.3,0,0.5-0.2,0.5-0.5c0-0.3-0.2-0.5-0.5-0.5H6.9c-0.3,0-0.5,0.2-0.5,0.5
		C6.4,16.3,6.7,16.5,6.9,16.5z"/>
	<path class="st0" d="M60,16.5h1.5c0.3,0,0.5-0.2,0.5-0.5c0-0.3-0.2-0.5-0.5-0.5H60c-0.3,0-0.5,0.2-0.5,0.5
		C59.5,16.3,59.7,16.5,60,16.5"/>
	<path class="st0" d="M2.5,32.5H4c0.3,0,0.5-0.2,0.5-0.5c0-0.3-0.2-0.5-0.5-0.5H2.5C2.2,31.5,2,31.7,2,32C2,32.3,2.2,32.5,2.5,32.5"
		/>
	<path class="st0" d="M54.1,32.5h2.9c0.3,0,0.5-0.2,0.5-0.5c0-0.3-0.2-0.5-0.5-0.5h-2.9c-0.3,0-0.5,0.2-0.5,0.5
		C53.6,32.3,53.8,32.5,54.1,32.5z M48.2,32.5h2.9c0.3,0,0.5-0.2,0.5-0.5c0-0.3-0.2-0.5-0.5-0.5h-2.9c-0.3,0-0.5,0.2-0.5,0.5
		C47.7,32.3,47.9,32.5,48.2,32.5z M42.3,32.5h2.9c0.3,0,0.5-0.2,0.5-0.5c0-0.3-0.2-0.5-0.5-0.5h-2.9c-0.3,0-0.5,0.2-0.5,0.5
		C41.8,32.3,42,32.5,42.3,32.5z M36.4,32.5h2.9c0.3,0,0.5-0.2,0.5-0.5c0-0.3-0.2-0.5-0.5-0.5h-2.9c-0.3,0-0.5,0.2-0.5,0.5
		C35.9,32.3,36.1,32.5,36.4,32.5z M30.5,32.5h2.9c0.3,0,0.5-0.2,0.5-0.5c0-0.3-0.2-0.5-0.5-0.5h-2.9c-0.3,0-0.5,0.2-0.5,0.5
		C30,32.3,30.3,32.5,30.5,32.5z M24.6,32.5h2.9c0.3,0,0.5-0.2,0.5-0.5c0-0.3-0.2-0.5-0.5-0.5h-2.9c-0.3,0-0.5,0.2-0.5,0.5
		C24.1,32.3,24.4,32.5,24.6,32.5z M18.7,32.5h2.9c0.3,0,0.5-0.2,0.5-0.5c0-0.3-0.2-0.5-0.5-0.5h-2.9c-0.3,0-0.5,0.2-0.5,0.5
		C18.2,32.3,18.5,32.5,18.7,32.5z M12.8,32.5h2.9c0.3,0,0.5-0.2,0.5-0.5c0-0.3-0.2-0.5-0.5-0.5h-2.9c-0.3,0-0.5,0.2-0.5,0.5
		C12.3,32.3,12.6,32.5,12.8,32.5z M6.9,32.5h2.9c0.3,0,0.5-0.2,0.5-0.5c0-0.3-0.2-0.5-0.5-0.5H6.9c-0.3,0-0.5,0.2-0.5,0.5
		C6.4,32.3,6.7,32.5,6.9,32.5z"/>
	<path class="st0" d="M60,32.5h1.5c0.3,0,0.5-0.2,0.5-0.5c0-0.3-0.2-0.5-0.5-0.5H60c-0.3,0-0.5,0.2-0.5,0.5
		C59.5,32.3,59.7,32.5,60,32.5"/>
	<path class="st0" d="M2.5,48.5H4c0.3,0,0.5-0.2,0.5-0.5c0-0.3-0.2-0.5-0.5-0.5H2.5C2.2,47.5,2,47.7,2,48C2,48.3,2.2,48.5,2.5,48.5"
		/>
	<path class="st0" d="M54.1,48.5h2.9c0.3,0,0.5-0.2,0.5-0.5c0-0.3-0.2-0.5-0.5-0.5h-2.9c-0.3,0-0.5,0.2-0.5,0.5
		C53.6,48.3,53.8,48.5,54.1,48.5z M48.2,48.5h2.9c0.3,0,0.5-0.2,0.5-0.5c0-0.3-0.2-0.5-0.5-0.5h-2.9c-0.3,0-0.5,0.2-0.5,0.5
		C47.7,48.3,47.9,48.5,48.2,48.5z M42.3,48.5h2.9c0.3,0,0.5-0.2,0.5-0.5c0-0.3-0.2-0.5-0.5-0.5h-2.9c-0.3,0-0.5,0.2-0.5,0.5
		C41.8,48.3,42,48.5,42.3,48.5z M36.4,48.5h2.9c0.3,0,0.5-0.2,0.5-0.5c0-0.3-0.2-0.5-0.5-0.5h-2.9c-0.3,0-0.5,0.2-0.5,0.5
		C35.9,48.3,36.1,48.5,36.4,48.5z M30.5,48.5h2.9c0.3,0,0.5-0.2,0.5-0.5c0-0.3-0.2-0.5-0.5-0.5h-2.9c-0.3,0-0.5,0.2-0.5,0.5
		C30,48.3,30.3,48.5,30.5,48.5z M24.6,48.5h2.9c0.3,0,0.5-0.2,0.5-0.5c0-0.3-0.2-0.5-0.5-0.5h-2.9c-0.3,0-0.5,0.2-0.5,0.5
		C24.1,48.3,24.4,48.5,24.6,48.5z M18.7,48.5h2.9c0.3,0,0.5-0.2,0.5-0.5c0-0.3-0.2-0.5-0.5-0.5h-2.9c-0.3,0-0.5,0.2-0.5,0.5
		C18.2,48.3,18.5,48.5,18.7,48.5z M12.8,48.5h2.9c0.3,0,0.5-0.2,0.5-0.5c0-0.3-0.2-0.5-0.5-0.5h-2.9c-0.3,0-0.5,0.2-0.5,0.5
		C12.3,48.3,12.6,48.5,12.8,48.5z M6.9,48.5h2.9c0.3,0,0.5-0.2,0.5-0.5c0-0.3-0.2-0.5-0.5-0.5H6.9c-0.3,0-0.5,0.2-0.5,0.5
		C6.4,48.3,6.7,48.5,6.9,48.5z"/>
	<path class="st0" d="M60,48.5h1.5c0.3,0,0.5-0.2,0.5-0.5c0-0.3-0.2-0.5-0.5-0.5H60c-0.3,0-0.5,0.2-0.5,0.5
		C59.5,48.3,59.7,48.5,60,48.5"/>
	<path class="st0" d="M2.5,64.5H4c0.3,0,0.5-0.2,0.5-0.5c0-0.3-0.2-0.5-0.5-0.5H2.5C2.2,63.5,2,63.7,2,64C2,64.3,2.2,64.5,2.5,64.5"
		/>
	<path class="st0" d="M54.1,64.5h2.9c0.3,0,0.5-0.2,0.5-0.5c0-0.3-0.2-0.5-0.5-0.5h-2.9c-0.3,0-0.5,0.2-0.5,0.5
		C53.6,64.3,53.8,64.5,54.1,64.5z M48.2,64.5h2.9c0.3,0,0.5-0.2,0.5-0.5c0-0.3-0.2-0.5-0.5-0.5h-2.9c-0.3,0-0.5,0.2-0.5,0.5
		C47.7,64.3,47.9,64.5,48.2,64.5z M42.3,64.5h2.9c0.3,0,0.5-0.2,0.5-0.5c0-0.3-0.2-0.5-0.5-0.5h-2.9c-0.3,0-0.5,0.2-0.5,0.5
		C41.8,64.3,42,64.5,42.3,64.5z M36.4,64.5h2.9c0.3,0,0.5-0.2,0.5-0.5c0-0.3-0.2-0.5-0.5-0.5h-2.9c-0.3,0-0.5,0.2-0.5,0.5
		C35.9,64.3,36.1,64.5,36.4,64.5z M30.5,64.5h2.9c0.3,0,0.5-0.2,0.5-0.5c0-0.3-0.2-0.5-0.5-0.5h-2.9c-0.3,0-0.5,0.2-0.5,0.5
		C30,64.3,30.3,64.5,30.5,64.5z M24.6,64.5h2.9c0.3,0,0.5-0.2,0.5-0.5c0-0.3-0.2-0.5-0.5-0.5h-2.9c-0.3,0-0.5,0.2-0.5,0.5
		C24.1,64.3,24.4,64.5,24.6,64.5z M18.7,64.5h2.9c0.3,0,0.5-0.2,0.5-0.5c0-0.3-0.2-0.5-0.5-0.5h-2.9c-0.3,0-0.5,0.2-0.5,0.5
		C18.2,64.3,18.5,64.5,18.7,64.5z M12.8,64.5h2.9c0.3,0,0.5-0.2,0.5-0.5c0-0.3-0.2-0.5-0.5-0.5h-2.9c-0.3,0-0.5,0.2-0.5,0.5
		C12.3,64.3,12.6,64.5,12.8,64.5z M6.9,64.5h2.9c0.3,0,0.5-0.2,0.5-0.5c0-0.3-0.2-0.5-0.5-0.5H6.9c-0.3,0-0.5,0.2-0.5,0.5
		C6.4,64.3,6.7,64.5,6.9,64.5z"/>
	<path class="st0" d="M60,64.5h1.5c0.3,0,0.5-0.2,0.5-0.5c0-0.3-0.2-0.5-0.5-0.5H60c-0.3,0-0.5,0.2-0.5,0.5
		C59.5,64.3,59.7,64.5,60,64.5"/>
	<path class="st0" d="M2.5,80.5H4c0.3,0,0.5-0.2,0.5-0.5c0-0.3-0.2-0.5-0.5-0.5H2.5C2.2,79.5,2,79.7,2,80C2,80.3,2.2,80.5,2.5,80.5"
		/>
	<path class="st0" d="M54.1,80.5h2.9c0.3,0,0.5-0.2,0.5-0.5c0-0.3-0.2-0.5-0.5-0.5h-2.9c-0.3,0-0.5,0.2-0.5,0.5
		C53.6,80.3,53.8,80.5,54.1,80.5z M48.2,80.5h2.9c0.3,0,0.5-0.2,0.5-0.5c0-0.3-0.2-0.5-0.5-0.5h-2.9c-0.3,0-0.5,0.2-0.5,0.5
		C47.7,80.3,47.9,80.5,48.2,80.5z M42.3,80.5h2.9c0.3,0,0.5-0.2,0.5-0.5c0-0.3-0.2-0.5-0.5-0.5h-2.9c-0.3,0-0.5,0.2-0.5,0.5
		C41.8,80.3,42,80.5,42.3,80.5z M36.4,80.5h2.9c0.3,0,0.5-0.2,0.5-0.5c0-0.3-0.2-0.5-0.5-0.5h-2.9c-0.3,0-0.5,0.2-0.5,0.5
		C35.9,80.3,36.1,80.5,36.4,80.5z M30.5,80.5h2.9c0.3,0,0.5-0.2,0.5-0.5c0-0.3-0.2-0.5-0.5-0.5h-2.9c-0.3,0-0.5,0.2-0.5,0.5
		C30,80.3,30.3,80.5,30.5,80.5z M24.6,80.5h2.9c0.3,0,0.5-0.2,0.5-0.5c0-0.3-0.2-0.5-0.5-0.5h-2.9c-0.3,0-0.5,0.2-0.5,0.5
		C24.1,80.3,24.4,80.5,24.6,80.5z M18.7,80.5h2.9c0.3,0,0.5-0.2,0.5-0.5c0-0.3-0.2-0.5-0.5-0.5h-2.9c-0.3,0-0.5,0.2-0.5,0.5
		C18.2,80.3,18.5,80.5,18.7,80.5z M12.8,80.5h2.9c0.3,0,0.5-0.2,0.5-0.5c0-0.3-0.2-0.5-0.5-0.5h-2.9c-0.3,0-0.5,0.2-0.5,0.5
		C12.3,80.3,12.6,80.5,12.8,80.5z M6.9,80.5h2.9c0.3,0,0.5-0.2,0.5-0.5c0-0.3-0.2-0.5-0.5-0.5H6.9c-0.3,0-0.5,0.2-0.5,0.5
		C6.4,80.3,6.7,80.5,6.9,80.5z"/>
	<path class="st0" d="M60,80.5h1.5c0.3,0,0.5-0.2,0.5-0.5c0-0.3-0.2-0.5-0.5-0.5H60c-0.3,0-0.5,0.2-0.5,0.5
		C59.5,80.3,59.7,80.5,60,80.5"/>
	<path class="st0" d="M16.5,85.5V84c0-0.3-0.2-0.5-0.5-0.5c-0.3,0-0.5,0.2-0.5,0.5v1.5c0,0.3,0.2,0.5,0.5,0.5
		C16.3,86,16.5,85.8,16.5,85.5"/>
	<path class="st0" d="M16.5,9.9V7c0-0.3-0.2-0.5-0.5-0.5c-0.3,0-0.5,0.2-0.5,0.5v3c0,0.3,0.2,0.5,0.5,0.5
		C16.3,10.4,16.5,10.2,16.5,9.9z M16.5,15.9v-3c0-0.3-0.2-0.5-0.5-0.5c-0.3,0-0.5,0.2-0.5,0.5v3c0,0.3,0.2,0.5,0.5,0.5
		C16.3,16.4,16.5,16.1,16.5,15.9z M16.5,21.8v-3c0-0.3-0.2-0.5-0.5-0.5c-0.3,0-0.5,0.2-0.5,0.5v3c0,0.3,0.2,0.5,0.5,0.5
		C16.3,22.3,16.5,22.1,16.5,21.8z M16.5,27.7v-3c0-0.3-0.2-0.5-0.5-0.5c-0.3,0-0.5,0.2-0.5,0.5v3c0,0.3,0.2,0.5,0.5,0.5
		C16.3,28.2,16.5,28,16.5,27.7z M16.5,33.6v-3c0-0.3-0.2-0.5-0.5-0.5c-0.3,0-0.5,0.2-0.5,0.5v3c0,0.3,0.2,0.5,0.5,0.5
		C16.3,34.1,16.5,33.9,16.5,33.6z M16.5,39.6v-3c0-0.3-0.2-0.5-0.5-0.5c-0.3,0-0.5,0.2-0.5,0.5v3c0,0.3,0.2,0.5,0.5,0.5
		C16.3,40.1,16.5,39.8,16.5,39.6z M16.5,45.5v-3c0-0.3-0.2-0.5-0.5-0.5c-0.3,0-0.5,0.2-0.5,0.5v3c0,0.3,0.2,0.5,0.5,0.5
		C16.3,46,16.5,45.8,16.5,45.5z M16.5,51.4v-3c0-0.3-0.2-0.5-0.5-0.5c-0.3,0-0.5,0.2-0.5,0.5v3c0,0.3,0.2,0.5,0.5,0.5
		C16.3,51.9,16.5,51.7,16.5,51.4z M16.5,57.3v-3c0-0.3-0.2-0.5-0.5-0.5c-0.3,0-0.5,0.2-0.5,0.5v3c0,0.3,0.2,0.5,0.5,0.5
		C16.3,57.8,16.5,57.6,16.5,57.3z M16.5,63.3v-3c0-0.3-0.2-0.5-0.5-0.5c-0.3,0-0.5,0.2-0.5,0.5v3c0,0.3,0.2,0.5,0.5,0.5
		C16.3,63.8,16.5,63.5,16.5,63.3z M16.5,69.2v-3c0-0.3-0.2-0.5-0.5-0.5c-0.3,0-0.5,0.2-0.5,0.5v3c0,0.3,0.2,0.5,0.5,0.5
		C16.3,69.7,16.5,69.5,16.5,69.2z M16.5,75.1v-3c0-0.3-0.2-0.5-0.5-0.5c-0.3,0-0.5,0.2-0.5,0.5v3c0,0.3,0.2,0.5,0.5,0.5
		C16.3,75.6,16.5,75.4,16.5,75.1z M16.5,81v-3c0-0.3-0.2-0.5-0.5-0.5c-0.3,0-0.5,0.2-0.5,0.5v3c0,0.3,0.2,0.5,0.5,0.5
		C16.3,81.5,16.5,81.3,16.5,81z"/>
	<path class="st0" d="M16.5,4V2.5C16.5,2.2,16.3,2,16,2c-0.3,0-0.5,0.2-0.5,0.5V4c0,0.3,0.2,0.5,0.5,0.5C16.3,4.5,16.5,4.3,16.5,4"
		/>
	<path class="st0" d="M32.5,85.5V84c0-0.3-0.2-0.5-0.5-0.5c-0.3,0-0.5,0.2-0.5,0.5v1.5c0,0.3,0.2,0.5,0.5,0.5
		C32.3,86,32.5,85.8,32.5,85.5"/>
	<path class="st0" d="M32.5,9.9V7c0-0.3-0.2-0.5-0.5-0.5c-0.3,0-0.5,0.2-0.5,0.5v3c0,0.3,0.2,0.5,0.5,0.5
		C32.3,10.4,32.5,10.2,32.5,9.9z M32.5,15.9v-3c0-0.3-0.2-0.5-0.5-0.5c-0.3,0-0.5,0.2-0.5,0.5v3c0,0.3,0.2,0.5,0.5,0.5
		C32.3,16.4,32.5,16.1,32.5,15.9z M32.5,21.8v-3c0-0.3-0.2-0.5-0.5-0.5c-0.3,0-0.5,0.2-0.5,0.5v3c0,0.3,0.2,0.5,0.5,0.5
		C32.3,22.3,32.5,22.1,32.5,21.8z M32.5,27.7v-3c0-0.3-0.2-0.5-0.5-0.5c-0.3,0-0.5,0.2-0.5,0.5v3c0,0.3,0.2,0.5,0.5,0.5
		C32.3,28.2,32.5,28,32.5,27.7z M32.5,33.6v-3c0-0.3-0.2-0.5-0.5-0.5c-0.3,0-0.5,0.2-0.5,0.5v3c0,0.3,0.2,0.5,0.5,0.5
		C32.3,34.1,32.5,33.9,32.5,33.6z M32.5,39.6v-3c0-0.3-0.2-0.5-0.5-0.5c-0.3,0-0.5,0.2-0.5,0.5v3c0,0.3,0.2,0.5,0.5,0.5
		C32.3,40.1,32.5,39.8,32.5,39.6z M32.5,45.5v-3c0-0.3-0.2-0.5-0.5-0.5c-0.3,0-0.5,0.2-0.5,0.5v3c0,0.3,0.2,0.5,0.5,0.5
		C32.3,46,32.5,45.8,32.5,45.5z M32.5,51.4v-3c0-0.3-0.2-0.5-0.5-0.5c-0.3,0-0.5,0.2-0.5,0.5v3c0,0.3,0.2,0.5,0.5,0.5
		C32.3,51.9,32.5,51.7,32.5,51.4z M32.5,57.3v-3c0-0.3-0.2-0.5-0.5-0.5c-0.3,0-0.5,0.2-0.5,0.5v3c0,0.3,0.2,0.5,0.5,0.5
		C32.3,57.8,32.5,57.6,32.5,57.3z M32.5,63.3v-3c0-0.3-0.2-0.5-0.5-0.5c-0.3,0-0.5,0.2-0.5,0.5v3c0,0.3,0.2,0.5,0.5,0.5
		C32.3,63.8,32.5,63.5,32.5,63.3z M32.5,69.2v-3c0-0.3-0.2-0.5-0.5-0.5c-0.3,0-0.5,0.2-0.5,0.5v3c0,0.3,0.2,0.5,0.5,0.5
		C32.3,69.7,32.5,69.5,32.5,69.2z M32.5,75.1v-3c0-0.3-0.2-0.5-0.5-0.5c-0.3,0-0.5,0.2-0.5,0.5v3c0,0.3,0.2,0.5,0.5,0.5
		C32.3,75.6,32.5,75.4,32.5,75.1z M32.5,81v-3c0-0.3-0.2-0.5-0.5-0.5c-0.3,0-0.5,0.2-0.5,0.5v3c0,0.3,0.2,0.5,0.5,0.5
		C32.3,81.5,32.5,81.3,32.5,81z"/>
	<path class="st0" d="M32.5,4V2.5C32.5,2.2,32.3,2,32,2c-0.3,0-0.5,0.2-0.5,0.5V4c0,0.3,0.2,0.5,0.5,0.5C32.3,4.5,32.5,4.3,32.5,4"
		/>
	<path class="st0" d="M48.5,85.5V84c0-0.3-0.2-0.5-0.5-0.5c-0.3,0-0.5,0.2-0.5,0.5v1.5c0,0.3,0.2,0.5,0.5,0.5
		C48.3,86,48.5,85.8,48.5,85.5"/>
	<path class="st0" d="M48.5,9.9V7c0-0.3-0.2-0.5-0.5-0.5c-0.3,0-0.5,0.2-0.5,0.5v3c0,0.3,0.2,0.5,0.5,0.5
		C48.3,10.4,48.5,10.2,48.5,9.9z M48.5,15.9v-3c0-0.3-0.2-0.5-0.5-0.5c-0.3,0-0.5,0.2-0.5,0.5v3c0,0.3,0.2,0.5,0.5,0.5
		C48.3,16.4,48.5,16.1,48.5,15.9z M48.5,21.8v-3c0-0.3-0.2-0.5-0.5-0.5c-0.3,0-0.5,0.2-0.5,0.5v3c0,0.3,0.2,0.5,0.5,0.5
		C48.3,22.3,48.5,22.1,48.5,21.8z M48.5,27.7v-3c0-0.3-0.2-0.5-0.5-0.5c-0.3,0-0.5,0.2-0.5,0.5v3c0,0.3,0.2,0.5,0.5,0.5
		C48.3,28.2,48.5,28,48.5,27.7z M48.5,33.6v-3c0-0.3-0.2-0.5-0.5-0.5c-0.3,0-0.5,0.2-0.5,0.5v3c0,0.3,0.2,0.5,0.5,0.5
		C48.3,34.1,48.5,33.9,48.5,33.6z M48.5,39.6v-3c0-0.3-0.2-0.5-0.5-0.5c-0.3,0-0.5,0.2-0.5,0.5v3c0,0.3,0.2,0.5,0.5,0.5
		C48.3,40.1,48.5,39.8,48.5,39.6z M48.5,45.5v-3c0-0.3-0.2-0.5-0.5-0.5c-0.3,0-0.5,0.2-0.5,0.5v3c0,0.3,0.2,0.5,0.5,0.5
		C48.3,46,48.5,45.8,48.5,45.5z M48.5,51.4v-3c0-0.3-0.2-0.5-0.5-0.5c-0.3,0-0.5,0.2-0.5,0.5v3c0,0.3,0.2,0.5,0.5,0.5
		C48.3,51.9,48.5,51.7,48.5,51.4z M48.5,57.3v-3c0-0.3-0.2-0.5-0.5-0.5c-0.3,0-0.5,0.2-0.5,0.5v3c0,0.3,0.2,0.5,0.5,0.5
		C48.3,57.8,48.5,57.6,48.5,57.3z M48.5,63.3v-3c0-0.3-0.2-0.5-0.5-0.5c-0.3,0-0.5,0.2-0.5,0.5v3c0,0.3,0.2,0.5,0.5,0.5
		C48.3,63.8,48.5,63.5,48.5,63.3z M48.5,69.2v-3c0-0.3-0.2-0.5-0.5-0.5c-0.3,0-0.5,0.2-0.5,0.5v3c0,0.3,0.2,0.5,0.5,0.5
		C48.3,69.7,48.5,69.5,48.5,69.2z M48.5,75.1v-3c0-0.3-0.2-0.5-0.5-0.5c-0.3,0-0.5,0.2-0.5,0.5v3c0,0.3,0.2,0.5,0.5,0.5
		C48.3,75.6,48.5,75.4,48.5,75.1z M48.5,81v-3c0-0.3-0.2-0.5-0.5-0.5c-0.3,0-0.5,0.2-0.5,0.5v3c0,0.3,0.2,0.5,0.5,0.5
		C48.3,81.5,48.5,81.3,48.5,81z"/>
	<path class="st0" d="M48.5,4V2.5C48.5,2.2,48.3,2,48,2c-0.3,0-0.5,0.2-0.5,0.5V4c0,0.3,0.2,0.5,0.5,0.5C48.3,4.5,48.5,4.3,48.5,4"
		/>
</g>
</svg>
